<svg width="34" height="32" viewBox="0 0 34 32" fill="none" xmlns="http://www.w3.org/2000/svg">
<path d="M31.065 1.51999H29.545V22.86H8.21497V24.38H29.545V28.95H31.065V1.51999Z" fill="white"/>
<path d="M29.545 28.95H15.835V30.48H29.545V28.95Z" fill="white"/>
<path d="M21.9249 18.29H17.3549V19.81H21.9249V18.29Z" fill="white"/>
<path d="M14.3049 32V27.43H28.0249V25.91H9.73492V27.43H11.2549V30.48H12.7849V32H14.3049Z" fill="white"/>
<path d="M24.9749 15.24H14.3049V16.76H24.9749V15.24Z" fill="white"/>
<path d="M15.8349 10.67H17.3549V12.19H18.8749V13.72H20.4049V12.19H21.9249V10.67H23.4449V9.14001H24.9749V6.10001H23.4449V4.57001H20.4049V6.10001H18.8749V4.57001H15.8349V6.10001H14.3049V9.14001H15.8349V10.67Z" fill="white"/>
<path d="M9.73497 3.04999H8.21497V21.33H9.73497V3.04999Z" fill="white"/>
<path d="M29.5449 0H6.68494V1.52H29.5449V0Z" fill="white"/>
<path d="M9.73494 28.95H6.68494V30.48H9.73494V28.95Z" fill="white"/>
<path d="M8.21494 24.38H6.68494V25.91H8.21494V24.38Z" fill="white"/>
<path d="M6.68498 1.51999H5.16498V3.04999H6.68498V1.51999Z" fill="white"/>
<path d="M5.16495 3.04999H3.63495V27.43H5.16495V28.95H6.68495V25.91H5.16495V3.04999Z" fill="white"/>
</svg>
