<svg width="16" height="17" viewBox="0 0 16 17" fill="none" xmlns="http://www.w3.org/2000/svg">
<path d="M15.1903 4.69H14.4485V13.835H15.1903V4.69Z" fill="white"/>
<path d="M14.4484 13.835H12.9745V14.595H14.4484V13.835Z" fill="white"/>
<path d="M12.9745 13.07H11.4957V13.835H12.9745V13.07Z" fill="white"/>
<path d="M11.4958 12.31H9.28003V13.07H11.4958V12.31Z" fill="white"/>
<path d="M12.2327 8.5H10.017V9.26H12.2327V8.5Z" fill="white"/>
<path d="M12.2327 6.21503H10.017V6.97503H12.2327V6.21503Z" fill="white"/>
<path d="M12.2327 3.92999H10.017V4.68999H12.2327V3.92999Z" fill="white"/>
<path d="M12.9746 2.40503H9.28003V3.16503H12.9746V2.40503Z" fill="white"/>
<path d="M10.017 6.97498H9.28003V7.73998H10.017V6.97498Z" fill="white"/>
<path d="M10.017 4.69H9.28003V5.455H10.017V4.69Z" fill="white"/>
<path d="M9.28003 3.16498H8.53821V3.92998H9.28003V3.16498Z" fill="white"/>
<path d="M9.27997 13.07H7.06421V13.835H9.27997V13.07Z" fill="white"/>
<path d="M7.80118 3.16498H7.06421V3.92998H7.80118V3.16498Z" fill="white"/>
<path d="M7.06424 12.31H4.84363V13.07H7.06424V12.31Z" fill="white"/>
<path d="M7.06421 6.97498H6.32239V7.73998H7.06421V6.97498Z" fill="white"/>
<path d="M7.06421 4.69H6.32239V5.455H7.06421V4.69Z" fill="white"/>
<path d="M6.32246 8.5H4.10669V9.26H6.32246V8.5Z" fill="white"/>
<path d="M6.32246 6.21503H4.10669V6.97503H6.32246V6.21503Z" fill="white"/>
<path d="M6.32246 3.92999H4.10669V4.68999H6.32246V3.92999Z" fill="white"/>
<path d="M7.06429 2.40503H3.36975V3.16503H7.06429V2.40503Z" fill="white"/>
<path d="M4.84369 13.07H3.36975V13.835H4.84369V13.07Z" fill="white"/>
<path d="M7.06419 10.785V10.025H4.8436V10.785H3.36966V3.16498H2.62784V3.92998H1.89087V4.68998H2.62784V12.31H4.8436V11.55H7.06419V12.31H9.27995V11.55H11.4957V12.31H13.7115V4.68998H14.4484V3.92998H13.7115V3.16498H12.9745V10.785H11.4957V10.025H9.27995V10.785H8.53813V3.92998H7.80116V10.785H7.06419Z" fill="white"/>
<path d="M3.36966 13.835H1.89087V14.595H3.36966V13.835Z" fill="white"/>
<path d="M1.89087 4.69H1.14905V13.835H1.89087V4.69Z" fill="white"/>
</svg>
