<svg width="16" height="17" viewBox="0 0 16 17" fill="none" xmlns="http://www.w3.org/2000/svg">
<g clip-path="url(#clip0_2019_555)">
<path d="M14.4509 9.64001H13.7091V13.45H14.4509V9.64001Z" fill="white"/>
<path d="M13.7091 13.45H12.9722V14.975H13.7091V13.45Z" fill="white"/>
<path d="M13.7091 8.11499H12.9722V9.63999H13.7091V8.11499Z" fill="white"/>
<path d="M12.9722 14.975H12.2352V15.735H12.9722V14.975Z" fill="white"/>
<path d="M12.9722 7.35501H12.2352V8.11501H12.9722V7.35501Z" fill="white"/>
<path d="M12.2352 9.64001H11.4934V10.405H12.2352V9.64001Z" fill="white"/>
<path d="M12.2352 6.59494H11.4934V7.35494H12.2352V6.59494Z" fill="white"/>
<path d="M12.2352 15.735H4.10425V16.5H12.2352V15.735Z" fill="white"/>
<path d="M11.4934 5.82999H10.0146V6.59499H11.4934V5.82999Z" fill="white"/>
<path d="M10.0146 8.11499H9.27759V8.87999H10.0146V8.11499Z" fill="white"/>
<path d="M8.54065 10.4051H7.79883V11.1651H8.54065V10.4051Z" fill="white"/>
<path d="M7.06192 8.11499H6.32495V8.87999H7.06192V8.11499Z" fill="white"/>
<path d="M7.06192 1.26H9.27768V5.83H10.0146V1.26H10.7565V0.5H5.58313V1.26H6.32495V5.83H7.06192V1.26Z" fill="white"/>
<path d="M6.32485 5.82999H4.84607V6.59499H6.32485V5.82999Z" fill="white"/>
<path d="M5.58303 9.64001H4.84607V10.405H5.58303V9.64001Z" fill="white"/>
<path d="M4.10428 14.21H4.8461V14.975H11.4934V14.21H12.2352V13.45H12.9722V11.925H12.2352V11.165H10.7564V11.925H10.0146V12.69H7.79883V11.925H6.32489V11.165H4.10428V11.925H3.36731V13.45H4.10428V14.21Z" fill="white"/>
<path d="M4.84607 6.59494H4.10425V7.35494H4.84607V6.59494Z" fill="white"/>
<path d="M4.10428 14.975H3.36731V15.735H4.10428V14.975Z" fill="white"/>
<path d="M4.10428 7.35501H3.36731V8.11501H4.10428V7.35501Z" fill="white"/>
<path d="M3.36734 13.45H2.63037V14.975H3.36734V13.45Z" fill="white"/>
<path d="M3.36734 8.11499H2.63037V9.63999H3.36734V8.11499Z" fill="white"/>
<path d="M2.63037 9.64001H1.88855V13.45H2.63037V9.64001Z" fill="white"/>
</g>
<defs>
<clipPath id="clip0_2019_555">
<rect width="16" height="16" fill="white" transform="translate(0 0.5)"/>
</clipPath>
</defs>
</svg>
