<svg width="24" height="24" viewBox="0 0 24 24" fill="none" xmlns="http://www.w3.org/2000/svg">
<path d="M6 8.33334V9.33334H8V8.33334H6Z" fill="black"/>
<path d="M5 17.3333H6V9.33334H5V17.3333Z" fill="black"/>
<path d="M8 17.3333H9V9.33334H8V17.3333Z" fill="black"/>
<path d="M10 17.3333H11V11.3333H10V17.3333Z" fill="black"/>
<path d="M11 10.3333V11.3333H13V10.3333H11Z" fill="black"/>
<path d="M13 17.3333H14V11.3333H13V17.3333Z" fill="black"/>
<path d="M15 17.3333H16V6.33334H15V17.3333Z" fill="black"/>
<path d="M16 5.33334V6.33334H18V5.33334H16Z" fill="black"/>
<path d="M18 17.3333H19V6.33334H18V17.3333Z" fill="black"/>
<path d="M16 17.3333V18.3333H18V17.3333H16Z" fill="black"/>
<path d="M11 17.3333V18.3333H13V17.3333H11Z" fill="black"/>
<path d="M6 17.3333V18.3333H8V17.3333H6Z" fill="black"/>
</svg>
