<svg width="16" height="17" viewBox="0 0 16 17" fill="none" xmlns="http://www.w3.org/2000/svg">
<g clip-path="url(#clip0_2019_810)">
<path d="M15.4572 8.12H14.7202V12.69H15.4572V8.12Z" fill="white"/>
<path d="M14.7202 7.35999H13.9833V8.11999H14.7202V7.35999Z" fill="white"/>
<path d="M13.9832 9.64502H13.2414V11.165H11.0257V9.64502H10.2887V12.69H9.54688V13.455H10.2887V16.5H11.7675V14.215H12.5045V16.5H13.9832V13.455H14.7202V12.69H13.9832V9.64502Z" fill="white"/>
<path d="M13.9833 6.59497H13.2415V7.35997H13.9833V6.59497Z" fill="white"/>
<path d="M13.9833 5.07001H13.2415V5.835H13.9833V5.07001Z" fill="white"/>
<path d="M12.5044 7.35999H11.7675V9.64499H12.5044V7.35999Z" fill="white"/>
<path d="M13.2414 5.83502H11.0256V6.59502H13.2414V5.83502Z" fill="white"/>
<path d="M11.0257 6.59497H10.2887V7.35997H11.0257V6.59497Z" fill="white"/>
<path d="M11.0257 5.07001H10.2887V5.835H11.0257V5.07001Z" fill="white"/>
<path d="M10.2887 7.35999H9.54688V8.11999H10.2887V7.35999Z" fill="white"/>
<path d="M11.0257 3.55V2.785H13.2414V3.55H13.9832V5.07H14.7202V2.025H13.9832V1.26H13.2414V0.5H11.0257V1.26H10.2887V2.025H9.54688V5.07H10.2887V3.55H11.0257Z" fill="white"/>
<path d="M9.54691 8.12H8.80994V12.69H9.54691V8.12Z" fill="white"/>
<path d="M8.80985 14.215H8.07288V14.975H8.80985V14.215Z" fill="white"/>
<path d="M8.80985 2.02502H8.07288V2.78502H8.80985V2.02502Z" fill="white"/>
<path d="M8.0729 13.455H6.59412V14.215H8.0729V13.455Z" fill="white"/>
<path d="M8.0729 2.78503H6.59412V3.55003H8.0729V2.78503Z" fill="white"/>
<path d="M8.80987 0.5H6.59412V1.26H8.80987V0.5Z" fill="white"/>
<path d="M8.80987 15.74H6.59412V16.5H8.80987V15.74Z" fill="white"/>
<path d="M2.1626 11.93V13.455H2.89957V12.69H5.8523V13.455H6.59412V12.69H7.33109V11.93H5.11533V10.405H4.37836V11.93H2.1626Z" fill="white"/>
<path d="M6.59414 1.26001H5.11536V2.02501H6.59414V1.26001Z" fill="white"/>
<path d="M6.59414 14.975H5.11536V15.74H6.59414V14.975Z" fill="white"/>
<path d="M5.11537 2.02502H3.6366V2.78502H5.11537V2.02502Z" fill="white"/>
<path d="M5.11537 14.215H3.6366V14.975H5.11537V14.215Z" fill="white"/>
<path d="M3.63651 13.455H2.89954V14.215H3.63651V13.455Z" fill="white"/>
<path d="M2.1626 5.06999H4.37836V6.59498H5.11533V5.06999H8.80988V4.30999H6.59412V3.54999H5.8523V4.30999H2.89957V3.54999H2.1626V5.06999Z" fill="white"/>
<path d="M3.63651 2.78503H2.89954V3.55003H3.63651V2.78503Z" fill="white"/>
<path d="M2.16259 10.405H1.42078V11.93H2.16259V10.405Z" fill="white"/>
<path d="M2.16259 5.07001H1.42078V6.595H2.16259V5.07001Z" fill="white"/>
<path d="M3.63657 8.11997H1.42081V6.59497H0.683838V10.405H1.42081V8.87997H3.63657V10.405H4.37838V8.87997H7.33111V8.11997H4.37838V6.59497H3.63657V8.11997Z" fill="white"/>
</g>
<defs>
<clipPath id="clip0_2019_810">
<rect width="16" height="16" fill="white" transform="translate(0 0.5)"/>
</clipPath>
</defs>
</svg>
