<svg width="33" height="33" viewBox="0 0 33 33" fill="none" xmlns="http://www.w3.org/2000/svg">
<rect x="0.35" y="0.35" width="32.3" height="32.3" rx="6.65" stroke="#9993D2" stroke-width="0.7"/>
<g clip-path="url(#clip0_2019_1217)">
<mask id="mask0_2019_1217" style="mask-type:luminance" maskUnits="userSpaceOnUse" x="8" y="8" width="16" height="17">
<path d="M23.9273 8.5H8.41211V24.5H23.9273V8.5Z" fill="white"/>
</mask>
<g mask="url(#mask0_2019_1217)">
<path d="M23.9273 16.5025H23.1903V20.3125H23.9273V16.5025Z" fill="white"/>
<path d="M23.9273 11.9275H23.1903V14.2175H23.9273V11.9275Z" fill="white"/>
<path d="M23.1903 20.3125H22.4485V21.0725H23.1903V20.3125Z" fill="white"/>
<path d="M22.4485 13.4525H21.7115V14.2175H20.9745V14.9775H20.2327V15.7375H19.4958V16.5025H18.7588V17.2625H19.4958V18.0225H20.2327V17.2625H20.9745V16.5025H21.7115V15.7375H22.4485V14.9775H23.1903V14.2175H22.4485V13.4525Z" fill="white"/>
<path d="M23.1902 11.1675H20.9745V11.9275H23.1902V11.1675Z" fill="white"/>
<path d="M22.4484 21.0725H9.89087V21.8325H22.4484V21.0725Z" fill="white"/>
<path d="M20.2327 11.1675H18.7588V11.9275H20.2327V11.1675Z" fill="white"/>
<path d="M17.28 18.0225V15.7375H16.5382V18.7875H19.4958V18.0225H17.28Z" fill="white"/>
<path d="M18.017 16.5025H18.7588V15.7375H19.4958V14.9775H20.2328V14.2175H20.9746V13.4525H21.7115V12.6925H20.9746V11.9275H20.2328V12.6925H19.4958V13.4525H18.7588V14.2175H18.017V14.9775H17.28V15.7375H18.017V16.5025Z" fill="white"/>
<path d="M18.7588 11.9275H18.017V12.6925H18.7588V11.9275Z" fill="white"/>
<path d="M18.017 12.6925H17.28V13.4525H18.017V12.6925Z" fill="white"/>
<path d="M16.5381 18.7875H15.8011V19.5475H16.5381V18.7875Z" fill="white"/>
<path d="M14.3224 18.7875H13.5854V19.5475H14.3224V18.7875Z" fill="white"/>
<path d="M12.1066 18.7875H11.3696V19.5475H12.1066V18.7875Z" fill="white"/>
<path d="M16.5381 14.2175H9.89087V14.9775H16.5381V14.2175Z" fill="white"/>
<path d="M9.8909 20.3125H9.15393V21.0725H9.8909V20.3125Z" fill="white"/>
<path d="M9.8909 14.9775H9.15393V15.7375H9.8909V14.9775Z" fill="white"/>
<path d="M9.15393 15.7375H8.41211V20.3125H9.15393V15.7375Z" fill="white"/>
</g>
</g>
<defs>
<clipPath id="clip0_2019_1217">
<rect width="16" height="16" fill="white" transform="translate(8 8.5)"/>
</clipPath>
</defs>
</svg>
