<svg width="33" height="33" viewBox="0 0 33 33" fill="none" xmlns="http://www.w3.org/2000/svg">
<rect x="0.35" y="0.35" width="32.3" height="32.3" rx="6.65" stroke="#9993D2" stroke-width="0.7"/>
<g clip-path="url(#clip0_2019_1106)">
<path d="M22.4509 17.64H21.7091V21.45H22.4509V17.64Z" fill="white"/>
<path d="M21.7091 21.45H20.9722V22.975H21.7091V21.45Z" fill="white"/>
<path d="M21.7091 16.115H20.9722V17.64H21.7091V16.115Z" fill="white"/>
<path d="M20.9722 22.975H20.2352V23.735H20.9722V22.975Z" fill="white"/>
<path d="M20.9722 15.355H20.2352V16.115H20.9722V15.355Z" fill="white"/>
<path d="M20.2352 17.64H19.4934V18.405H20.2352V17.64Z" fill="white"/>
<path d="M20.2352 14.5949H19.4934V15.3549H20.2352V14.5949Z" fill="white"/>
<path d="M20.2352 23.735H12.1042V24.5H20.2352V23.735Z" fill="white"/>
<path d="M19.4934 13.83H18.0146V14.595H19.4934V13.83Z" fill="white"/>
<path d="M18.0146 16.115H17.2776V16.88H18.0146V16.115Z" fill="white"/>
<path d="M16.5406 18.4051H15.7988V19.1651H16.5406V18.4051Z" fill="white"/>
<path d="M15.0619 16.115H14.325V16.88H15.0619V16.115Z" fill="white"/>
<path d="M15.0619 9.26H17.2777V13.83H18.0146V9.26H18.7565V8.5H13.5831V9.26H14.3249V13.83H15.0619V9.26Z" fill="white"/>
<path d="M14.3248 13.83H12.8461V14.595H14.3248V13.83Z" fill="white"/>
<path d="M13.583 17.64H12.8461V18.405H13.583V17.64Z" fill="white"/>
<path d="M12.1043 22.21H12.8461V22.975H19.4934V22.21H20.2352V21.45H20.9722V19.925H20.2352V19.165H18.7564V19.925H18.0146V20.69H15.7988V19.925H14.3249V19.165H12.1043V19.925H11.3673V21.45H12.1043V22.21Z" fill="white"/>
<path d="M12.8461 14.5949H12.1042V15.3549H12.8461V14.5949Z" fill="white"/>
<path d="M12.1043 22.975H11.3673V23.735H12.1043V22.975Z" fill="white"/>
<path d="M12.1043 15.355H11.3673V16.115H12.1043V15.355Z" fill="white"/>
<path d="M11.3673 21.45H10.6304V22.975H11.3673V21.45Z" fill="white"/>
<path d="M11.3673 16.115H10.6304V17.64H11.3673V16.115Z" fill="white"/>
<path d="M10.6304 17.64H9.88855V21.45H10.6304V17.64Z" fill="white"/>
</g>
<defs>
<clipPath id="clip0_2019_1106">
<rect width="16" height="16" fill="white" transform="translate(8 8.5)"/>
</clipPath>
</defs>
</svg>
