<svg width="16" height="17" viewBox="0 0 16 17" fill="none" xmlns="http://www.w3.org/2000/svg">
<path d="M15.2269 5.69006H13.0111V6.42703H15.2269V5.69006Z" fill="white"/>
<path d="M14.4899 9.38461H13.748V10.1216H14.4899V9.38461Z" fill="white"/>
<path d="M14.4899 1.99551H13.748V2.73248H14.4899V1.99551Z" fill="white"/>
<path d="M13.7481 8.64273H13.0111V9.38455H13.7481V8.64273Z" fill="white"/>
<path d="M13.7481 2.73245H13.0111V3.47427H13.7481V2.73245Z" fill="white"/>
<path d="M13.0111 7.90582H12.2742V8.64279H13.0111V7.90582Z" fill="white"/>
<path d="M13.0111 3.47427H12.2742V4.21124H13.0111V3.47427Z" fill="white"/>
<path d="M8.57959 7.90577H9.31656V8.64274H10.0584V7.90577H10.7953V7.1688H11.5323V5.69001H10.7953V4.95306H9.31656V5.69001H8.57959V6.42698H7.83777V7.1688H8.57959V7.90577Z" fill="white"/>
<path d="M10.7953 1.25851H10.0583V3.47427H10.7953V1.25851Z" fill="white"/>
<path d="M9.31656 8.64273H8.57959V9.38455H9.31656V8.64273Z" fill="white"/>
<path d="M8.57959 9.38461H7.83777V10.1216H8.57959V9.38461Z" fill="white"/>
<path d="M8.57959 3.47427H7.83777V4.21124H8.57959V3.47427Z" fill="white"/>
<path d="M7.8378 10.1216H7.10083V10.8634H7.8378V10.1216Z" fill="white"/>
<path d="M7.8378 7.16885H7.10083V7.90582H7.8378V7.16885Z" fill="white"/>
<path d="M7.8378 2.73245H7.10083V3.47427H7.8378V2.73245Z" fill="white"/>
<path d="M7.10074 10.8634H6.36377V11.6004H7.10074V10.8634Z" fill="white"/>
<path d="M7.10074 7.90582H6.36377V8.64279H7.10074V7.90582Z" fill="white"/>
<path d="M7.10074 1.99551H6.36377V2.73248H7.10074V1.99551Z" fill="white"/>
<path d="M6.36389 11.6004H5.62207V12.3373H6.36389V11.6004Z" fill="white"/>
<path d="M6.36389 8.64273H5.62207V9.38455H6.36389V8.64273Z" fill="white"/>
<path d="M5.62198 12.3373H4.88501V13.0791H5.62198V12.3373Z" fill="white"/>
<path d="M5.62198 9.38461H4.88501V10.1216H5.62198V9.38461Z" fill="white"/>
<path d="M4.88503 13.0792H4.14807V13.8161H4.88503V13.0792Z" fill="white"/>
<path d="M4.88503 10.1216H4.14807V10.8634H4.88503V10.1216Z" fill="white"/>
<path d="M4.14807 13.8161H3.40625V14.5531H4.14807V13.8161Z" fill="white"/>
<path d="M4.14807 10.8634H3.40625V11.6004H4.14807V10.8634Z" fill="white"/>
<path d="M3.40628 11.6004H2.66931V12.3373H3.40628V11.6004Z" fill="white"/>
<path d="M3.40628 14.553H1.92749V15.2949H3.40628V14.553Z" fill="white"/>
<path d="M2.66931 12.3373H1.92749V13.0791H2.66931V12.3373Z" fill="white"/>
<path d="M1.92752 13.0792H1.19055V14.5531H1.92752V13.0792Z" fill="white"/>
</svg>
