<svg width="34" height="32" viewBox="0 0 34 32" fill="none" xmlns="http://www.w3.org/2000/svg">
<mask id="mask0_2_74" style="mask-type:luminance" maskUnits="userSpaceOnUse" x="1" y="0" width="33" height="32">
<path d="M33.3501 0H1.3501V32H33.3501V0Z" fill="white"/>
</mask>
<g mask="url(#mask0_2_74)">
<path d="M2.11499 16.76H5.15499V15.24H6.68499V13.71H8.20499V12.19H9.73499V10.67H11.255V9.14H12.775V7.62H14.305V6.09H15.825V4.57H18.875V6.09H20.395V7.62H21.925V9.14H23.445V10.67H24.965V12.19H26.495V13.71H28.015V15.24H29.535V16.76H32.585V13.71H31.065V12.19H29.535V10.67H28.015V9.14H26.495V7.62H24.965V6.09H23.445V4.57H21.925V3.05H20.395V1.52H18.875V0H15.825V1.52H14.305V3.05H12.775V4.57H11.255V6.09H9.73499V7.62H8.20499V9.14H6.68499V10.67H5.15499V12.19H3.63499V13.71H2.11499V16.76Z" fill="white"/>
<path d="M28.015 30.48H21.925V22.86H20.395V32H29.535V18.28H28.015V30.48Z" fill="white"/>
<path d="M28.015 16.76H26.495V18.28H28.015V16.76Z" fill="white"/>
<path d="M26.495 15.24H24.965V16.76H26.495V15.24Z" fill="white"/>
<path d="M24.9651 13.71H23.4451V15.24H24.9651V13.71Z" fill="white"/>
<path d="M23.445 12.19H21.925V13.71H23.445V12.19Z" fill="white"/>
<path d="M21.925 10.67H20.395V12.19H21.925V10.67Z" fill="white"/>
<path d="M20.395 21.33H18.875V22.86H20.395V21.33Z" fill="white"/>
<path d="M20.395 9.14001H18.875V10.67H20.395V9.14001Z" fill="white"/>
<path d="M18.875 19.81H15.825V21.33H18.875V19.81Z" fill="white"/>
<path d="M18.875 7.62H15.825V9.14H18.875V7.62Z" fill="white"/>
<path d="M15.8249 21.33H14.3049V22.86H15.8249V21.33Z" fill="white"/>
<path d="M15.8249 9.14001H14.3049V10.67H15.8249V9.14001Z" fill="white"/>
<path d="M14.305 22.86H12.775V30.48H6.68503V18.28H5.15503V32H14.305V22.86Z" fill="white"/>
<path d="M14.3049 10.67H12.7749V12.19H14.3049V10.67Z" fill="white"/>
<path d="M12.7749 12.19H11.2549V13.71H12.7749V12.19Z" fill="white"/>
<path d="M11.2551 13.71H9.73511V15.24H11.2551V13.71Z" fill="white"/>
<path d="M9.73508 15.24H8.20508V16.76H9.73508V15.24Z" fill="white"/>
<path d="M8.20506 16.76H6.68506V18.28H8.20506V16.76Z" fill="white"/>
</g>
</svg>
