<svg width="16" height="17" viewBox="0 0 16 17" fill="none" xmlns="http://www.w3.org/2000/svg">
<g clip-path="url(#clip0_2019_941)">
<path d="M15.4572 4.69H14.7202V7.74H15.4572V4.69Z" fill="white"/>
<path d="M14.7202 3.92999H13.9784V4.68999H14.7202V3.92999Z" fill="white"/>
<path d="M13.9784 14.595H13.2415V15.36H13.9784V14.595Z" fill="white"/>
<path d="M13.2415 8.49999H13.9784V14.595H14.7202V7.73999H13.2415V8.49999Z" fill="white"/>
<path d="M13.2414 8.5H11.7626V9.265H13.2414V8.5Z" fill="white"/>
<path d="M13.2414 15.36H2.89954V16.12H13.2414V15.36Z" fill="white"/>
<path d="M11.7626 9.26501H10.2887V10.025H11.7626V9.26501Z" fill="white"/>
<path d="M7.33108 10.785V12.31H8.80987V10.785H10.2887V10.025H8.80987V9.26501H7.33108V10.025H5.85229V10.785H7.33108Z" fill="white"/>
<path d="M11.7626 0.880005H4.37354V1.645H11.7626V0.880005Z" fill="white"/>
<path d="M5.85233 9.26501H4.37354V10.025H5.85233V9.26501Z" fill="white"/>
<path d="M4.37348 8.5H2.89954V9.265H4.37348V8.5Z" fill="white"/>
<path d="M13.9783 3.93002V3.17002H12.5044V1.64502H11.7626V3.17002H4.37347V1.64502H3.6365V3.17002H2.15771V3.93002H13.9783Z" fill="white"/>
<path d="M2.89953 14.595H2.15771V15.36H2.89953V14.595Z" fill="white"/>
<path d="M2.15775 8.49999H2.89956V7.73999H1.42078V14.595H2.15775V8.49999Z" fill="white"/>
<path d="M2.15775 3.92999H1.42078V4.68999H2.15775V3.92999Z" fill="white"/>
<path d="M1.42081 4.69H0.683838V7.74H1.42081V4.69Z" fill="white"/>
</g>
<defs>
<clipPath id="clip0_2019_941">
<rect width="16" height="16" fill="white" transform="translate(0 0.5)"/>
</clipPath>
</defs>
</svg>
