<svg width="16" height="17" viewBox="0 0 16 17" fill="none" xmlns="http://www.w3.org/2000/svg">
<path d="M15.235 4.30499H14.475V5.83H12.95V6.595H11.425V7.355H12.95V9.64H12.19V10.405H12.95V11.925H13.71V6.595H14.475V13.45H13.71V16.5H16V13.45H15.235V4.30499Z" fill="white"/>
<path d="M14.475 3.54498H12.95V4.30498H14.475V3.54498Z" fill="white"/>
<path d="M12.9499 11.925H12.1899V12.69H12.9499V11.925Z" fill="white"/>
<path d="M12.95 5.07001H9.90002V5.83H12.95V5.07001Z" fill="white"/>
<path d="M12.95 2.78497H11.425V3.54497H12.95V2.78497Z" fill="white"/>
<path d="M12.19 12.69H10.665V13.45H12.19V12.69Z" fill="white"/>
<path d="M12.19 10.405H10.665V11.165H12.19V10.405Z" fill="white"/>
<path d="M11.425 7.35498H9.90002V8.11498H11.425V7.35498Z" fill="white"/>
<path d="M11.425 2.02002H9.90002V2.78502H11.425V2.02002Z" fill="white"/>
<path d="M10.6649 13.45H4.56995V14.21H10.6649V13.45Z" fill="white"/>
<path d="M10.6649 11.165H4.56995V11.925H10.6649V11.165Z" fill="white"/>
<path d="M9.90001 8.11499H8.38V8.87999H9.90001V8.11499Z" fill="white"/>
<path d="M9.89998 4.30499H6.85498V5.06999H9.89998V4.30499Z" fill="white"/>
<path d="M9.90001 1.26001H8.38V2.02001H9.90001V1.26001Z" fill="white"/>
<path d="M8.37998 0.5H6.85498V1.26H8.37998V0.5Z" fill="white"/>
<path d="M8.37998 8.88H6.85498V9.64001H8.37998V8.88Z" fill="white"/>
<path d="M6.85496 1.26001H5.32996V2.02001H6.85496V1.26001Z" fill="white"/>
<path d="M6.85496 8.11499H5.32996V8.87999H6.85496V8.11499Z" fill="white"/>
<path d="M5.32994 2.02002H3.80493V2.78502H5.32994V2.02002Z" fill="white"/>
<path d="M4.56992 12.69H3.04492V13.45H4.56992V12.69Z" fill="white"/>
<path d="M4.56992 10.405H3.04492V11.165H4.56992V10.405Z" fill="white"/>
<path d="M5.32994 7.35498H3.80493V8.11498H5.32994V7.35498Z" fill="white"/>
<path d="M3.80491 2.78497H2.28491V3.54497H3.80491V2.78497Z" fill="white"/>
<path d="M3.04491 11.925H2.28491V12.69H3.04491V11.925Z" fill="white"/>
<path d="M3.04501 10.405V9.64002H2.28501V7.35502H3.80501V6.59502H2.28501V5.83002H0.76001V6.59502H1.52001V11.925H2.28501V10.405H3.04501Z" fill="white"/>
<path d="M2.28501 3.54498H0.76001V4.30498H2.28501V3.54498Z" fill="white"/>
<path d="M0.760001 4.30499H0V5.83H0.760001V4.30499Z" fill="white"/>
</svg>
