<svg width="33" height="33" viewBox="0 0 33 33" fill="none" xmlns="http://www.w3.org/2000/svg">
<rect x="0.35" y="0.35" width="32.3" height="32.3" rx="6.65" stroke="#9993D2" stroke-width="0.7"/>
<path d="M23.2269 13.6901H21.0111V14.427H23.2269V13.6901Z" fill="white"/>
<path d="M22.4899 17.3846H21.748V18.1216H22.4899V17.3846Z" fill="white"/>
<path d="M22.4899 9.99551H21.748V10.7325H22.4899V9.99551Z" fill="white"/>
<path d="M21.7481 16.6427H21.0111V17.3845H21.7481V16.6427Z" fill="white"/>
<path d="M21.7481 10.7325H21.0111V11.4743H21.7481V10.7325Z" fill="white"/>
<path d="M21.0111 15.9058H20.2742V16.6428H21.0111V15.9058Z" fill="white"/>
<path d="M21.0111 11.4743H20.2742V12.2112H21.0111V11.4743Z" fill="white"/>
<path d="M16.5796 15.9058H17.3166V16.6427H18.0584V15.9058H18.7953V15.1688H19.5323V13.69H18.7953V12.9531H17.3166V13.69H16.5796V14.427H15.8378V15.1688H16.5796V15.9058Z" fill="white"/>
<path d="M18.7953 9.25851H18.0583V11.4743H18.7953V9.25851Z" fill="white"/>
<path d="M17.3166 16.6427H16.5796V17.3845H17.3166V16.6427Z" fill="white"/>
<path d="M16.5796 17.3846H15.8378V18.1216H16.5796V17.3846Z" fill="white"/>
<path d="M16.5796 11.4743H15.8378V12.2112H16.5796V11.4743Z" fill="white"/>
<path d="M15.8378 18.1216H15.1008V18.8634H15.8378V18.1216Z" fill="white"/>
<path d="M15.8378 15.1689H15.1008V15.9058H15.8378V15.1689Z" fill="white"/>
<path d="M15.8378 10.7325H15.1008V11.4743H15.8378V10.7325Z" fill="white"/>
<path d="M15.1007 18.8634H14.3638V19.6004H15.1007V18.8634Z" fill="white"/>
<path d="M15.1007 15.9058H14.3638V16.6428H15.1007V15.9058Z" fill="white"/>
<path d="M15.1007 9.99551H14.3638V10.7325H15.1007V9.99551Z" fill="white"/>
<path d="M14.3639 19.6004H13.6221V20.3373H14.3639V19.6004Z" fill="white"/>
<path d="M14.3639 16.6427H13.6221V17.3845H14.3639V16.6427Z" fill="white"/>
<path d="M13.622 20.3373H12.885V21.0791H13.622V20.3373Z" fill="white"/>
<path d="M13.622 17.3846H12.885V18.1216H13.622V17.3846Z" fill="white"/>
<path d="M12.885 21.0792H12.1481V21.8161H12.885V21.0792Z" fill="white"/>
<path d="M12.885 18.1216H12.1481V18.8634H12.885V18.1216Z" fill="white"/>
<path d="M12.1481 21.8161H11.4062V22.5531H12.1481V21.8161Z" fill="white"/>
<path d="M12.1481 18.8634H11.4062V19.6004H12.1481V18.8634Z" fill="white"/>
<path d="M11.4063 19.6004H10.6693V20.3373H11.4063V19.6004Z" fill="white"/>
<path d="M11.4063 22.553H9.92749V23.2949H11.4063V22.553Z" fill="white"/>
<path d="M10.6693 20.3373H9.92749V21.0791H10.6693V20.3373Z" fill="white"/>
<path d="M9.92752 21.0792H9.19055V22.5531H9.92752V21.0792Z" fill="white"/>
</svg>
