<svg width="16" height="17" viewBox="0 0 16 17" fill="none" xmlns="http://www.w3.org/2000/svg">
<g clip-path="url(#clip0_2019_602)">
<mask id="mask0_2019_602" style="mask-type:luminance" maskUnits="userSpaceOnUse" x="0" y="0" width="16" height="17">
<path d="M15.9273 0.5H0.412109V16.5H15.9273V0.5Z" fill="white"/>
</mask>
<g mask="url(#mask0_2019_602)">
<path d="M15.9273 8.50247H15.1903V12.3125H15.9273V8.50247Z" fill="white"/>
<path d="M15.9273 3.92749H15.1903V6.2175H15.9273V3.92749Z" fill="white"/>
<path d="M15.1903 12.3125H14.4485V13.0725H15.1903V12.3125Z" fill="white"/>
<path d="M14.4485 5.45248H13.7115V6.21748H12.9745V6.97748H12.2327V7.73748H11.4958V8.50248H10.7588V9.26248H11.4958V10.0225H12.2327V9.26248H12.9745V8.50248H13.7115V7.73748H14.4485V6.97748H15.1903V6.21748H14.4485V5.45248Z" fill="white"/>
<path d="M15.1902 3.16748H12.9745V3.92748H15.1902V3.16748Z" fill="white"/>
<path d="M14.4484 13.0725H1.89087V13.8325H14.4484V13.0725Z" fill="white"/>
<path d="M12.2327 3.16748H10.7588V3.92748H12.2327V3.16748Z" fill="white"/>
<path d="M9.28003 10.0225V7.73749H8.53821V10.7875H11.4958V10.0225H9.28003Z" fill="white"/>
<path d="M10.017 8.5025H10.7588V7.7375H11.4958V6.9775H12.2328V6.2175H12.9746V5.45249H13.7115V4.69249H12.9746V3.92749H12.2328V4.69249H11.4958V5.45249H10.7588V6.2175H10.017V6.9775H9.28003V7.7375H10.017V8.5025Z" fill="white"/>
<path d="M10.7588 3.92749H10.017V4.69249H10.7588V3.92749Z" fill="white"/>
<path d="M10.017 4.69247H9.28003V5.45247H10.017V4.69247Z" fill="white"/>
<path d="M8.53812 10.7875H7.80115V11.5475H8.53812V10.7875Z" fill="white"/>
<path d="M6.32242 10.7875H5.58545V11.5475H6.32242V10.7875Z" fill="white"/>
<path d="M4.1066 10.7875H3.36963V11.5475H4.1066V10.7875Z" fill="white"/>
<path d="M8.53812 6.2175H1.89087V6.9775H8.53812V6.2175Z" fill="white"/>
<path d="M1.8909 12.3125H1.15393V13.0725H1.8909V12.3125Z" fill="white"/>
<path d="M1.8909 6.97748H1.15393V7.73748H1.8909V6.97748Z" fill="white"/>
<path d="M1.15393 7.73749H0.412109V12.3125H1.15393V7.73749Z" fill="white"/>
</g>
</g>
<defs>
<clipPath id="clip0_2019_602">
<rect width="16" height="16" fill="white" transform="translate(0 0.5)"/>
</clipPath>
</defs>
</svg>
