<svg width="16" height="17" viewBox="0 0 16 17" fill="none" xmlns="http://www.w3.org/2000/svg">
<g clip-path="url(#clip0_2019_695)">
<path d="M12.1116 5.835H11.3746V2.02502H10.6328V8.88H11.3746V6.595H12.1116V9.645H12.8486V5.07502H12.1116V5.835Z" fill="white"/>
<path d="M12.1116 9.64499H11.3746V10.405H12.1116V9.64499Z" fill="white"/>
<path d="M11.3746 10.4051H10.6328V11.1701H11.3746V10.4051Z" fill="white"/>
<path d="M10.6327 8.88H9.89575V9.64501H10.6327V8.88Z" fill="white"/>
<path d="M10.6327 1.26501H9.89575V2.02501H10.6327V1.26501Z" fill="white"/>
<path d="M5.46427 11.17V11.93H7.68002V14.215H5.46427V14.98H3.98547V16.5H12.1115V14.98H10.6328V14.215H8.41699V11.93H10.6328V11.17H5.46427Z" fill="white"/>
<path d="M9.89578 4.31H9.15881V5.07499H9.89578V4.31Z" fill="white"/>
<path d="M9.89578 2.78497H9.15881V3.54997H9.89578V2.78497Z" fill="white"/>
<path d="M9.89584 9.64499H6.20129V10.405H9.89584V9.64499Z" fill="white"/>
<path d="M8.41702 5.07501H7.68005V5.835H8.41702V5.07501Z" fill="white"/>
<path d="M8.41702 3.54999H7.68005V4.30999H8.41702V3.54999Z" fill="white"/>
<path d="M8.41702 2.02502H7.68005V2.78502H8.41702V2.02502Z" fill="white"/>
<path d="M9.89584 0.5H6.20129V1.265H9.89584V0.5Z" fill="white"/>
<path d="M6.93826 4.31H6.20129V5.07499H6.93826V4.31Z" fill="white"/>
<path d="M6.93826 2.78497H6.20129V3.54997H6.93826V2.78497Z" fill="white"/>
<path d="M6.2012 8.88H5.46423V9.64501H6.2012V8.88Z" fill="white"/>
<path d="M6.2012 1.26501H5.46423V2.02501H6.2012V1.26501Z" fill="white"/>
<path d="M5.46425 10.4051H4.72241V11.1701H5.46425V10.4051Z" fill="white"/>
<path d="M4.72244 9.64499H3.98547V10.405H4.72244V9.64499Z" fill="white"/>
<path d="M3.9855 6.595H4.72247V8.88H5.46431V2.02502H4.72247V5.835H3.9855V5.07502H3.24854V9.645H3.9855V6.595Z" fill="white"/>
</g>
<defs>
<clipPath id="clip0_2019_695">
<rect width="16" height="16" fill="white" transform="translate(0 0.5)"/>
</clipPath>
</defs>
</svg>
